name Walk7.mot
datacolumns 19
datarows 12
range 0.82000000 0.87500000
endheader

                time	   L_ground_force_vx	   L_ground_force_vy	   L_ground_force_vz	   L_ground_force_px	   L_ground_force_py	   L_ground_force_pz	   R_ground_force_vx	   R_ground_force_vy	   R_ground_force_vz	   R_ground_force_px	   R_ground_force_py	   R_ground_force_pz	   L_ground_torque_x	   L_ground_torque_y	   L_ground_torque_z	   R_ground_torque_x	   R_ground_torque_y	   R_ground_torque_z	
          0.82000000	         -9.69179855	        118.91544745	         -8.30262910	          0.00005939	          0.00000000	          0.00061613	          0.00000001	         -0.00000007	         -0.00000000	         -0.00000000	          0.00000000	         -0.00000000	          0.00000000	          0.16892952	          0.00000000	          0.00000000	         -0.00000000	          0.00000000	
          0.82500000	        -16.35721552	        174.10229301	        -11.04621568	         -0.07810234	          0.00000000	         -0.00224599	          0.00000002	         -0.00000003	          0.00000000	          0.00000000	          0.00000000	          0.00000000	          0.00000000	          0.33007530	          0.00000000	          0.00000000	         -0.00000000	          0.00000000	
          0.83000000	        -23.63495113	        232.51909874	        -13.94679332	         -0.15055859	          0.00000000	         -0.00490982	          0.00000002	          0.00000004	          0.00000001	          0.00000000	          0.00000000	          0.00000000	          0.00000000	          0.50709738	          0.00000000	          0.00000000	         -0.00000000	          0.00000000	
          0.83500000	        -31.23281030	        290.41564667	        -16.73974177	         -0.21348414	          0.00000000	         -0.00725394	          0.00000002	          0.00000013	          0.00000002	          0.00000000	          0.00000000	          0.00000000	          0.00000000	          0.69423940	          0.00000000	          0.00000000	         -0.00000001	          0.00000000	
          0.84000000	        -38.90506410	        344.37940158	        -19.06581544	         -0.26513485	          0.00000000	         -0.00924620	          0.00000002	          0.00000027	          0.00000004	          0.00000000	          0.00000000	          0.00000000	          0.00000000	          0.88591391	          0.00000000	          0.00000000	         -0.00000001	          0.00000000	
          0.84500000	        -46.47871383	        392.18703055	        -20.57057362	         -0.30527289	          0.00000000	         -0.01091269	          0.00000002	          0.00000046	          0.00000006	          0.00000000	          0.00000000	          0.00000000	          0.00000000	          1.07688012	          0.00000000	          0.00000000	         -0.00000001	          0.00000000	
          0.85000000	        -53.79488394	        432.60421004	        -21.01553490	         -0.33464100	          0.00000000	         -0.01230687	          0.00000002	          0.00000068	          0.00000008	          0.00000000	          0.00000000	          0.00000000	          0.00000000	          1.26092442	          0.00000000	          0.00000000	         -0.00000001	          0.00000000	
          0.85500000	        -60.72416177	        465.42478469	        -20.30928968	         -0.35455003	          0.00000000	         -0.01349260	          0.00000001	          0.00000096	          0.00000011	          0.00000000	          0.00000000	          0.00000000	          0.00000000	          1.43124291	          0.00000000	          0.00000000	         -0.00000001	          0.00000000	
          0.86000000	        -67.24928795	        491.46549624	        -18.48300309	         -0.36657206	          0.00000000	         -0.01453128	         -0.00000000	          0.00000126	          0.00000014	          0.00000000	          0.00000000	          0.00000000	          0.00000000	          1.58135289	          0.00000000	          0.00000000	         -0.00000001	          0.00000000	
          0.86500000	        -73.50966324	        512.27017000	        -15.64954516	         -0.37232234	          0.00000000	         -0.01547469	         -0.00000002	          0.00000158	          0.00000016	          0.00000000	          0.00000000	          0.00000000	          0.00000000	          1.70608528	          0.00000000	          0.00000000	         -0.00000001	          0.00000000	
          0.87000000	        -79.73213458	        529.68801261	        -11.96938262	         -0.37332466	          0.00000000	         -0.01636059	         -0.00000005	          0.00000189	          0.00000019	          0.00000000	          0.00000000	          0.00000000	          0.00000000	          1.80124924	          0.00000000	          0.00000000	         -0.00000001	          0.00000000	
          0.87500000	        -86.08778377	        545.47728795	         -7.63287642	         -0.37094038	          0.00000000	         -0.01721043	         -0.00000009	          0.00000213	          0.00000020	          0.00000000	          0.00000000	          0.00000000	          0.00000000	          1.86467867	          0.00000000	          0.00000000	          0.00000000	          0.00000000	
